<svg width="54" height="9" viewBox="0 0 54 9" fill="none" xmlns="http://www.w3.org/2000/svg">
<path d="M6.11659 3.32613C6.30718 3.32613 6.46169 3.17196 6.46169 2.98179C6.46169 2.79162 6.30718 2.63745 6.11659 2.63745C5.92599 2.63745 5.77148 2.79162 5.77148 2.98179C5.77148 3.17196 5.92599 3.32613 6.11659 3.32613Z" fill="url(#paint0_linear_1374_30708)"/>
<path d="M6.21497 3.10561C6.19463 3.10546 6.17478 3.09933 6.15791 3.08799C6.14104 3.07664 6.1279 3.06058 6.12014 3.04181C6.11237 3.02305 6.11032 3.00242 6.11425 2.9825C6.11818 2.96259 6.12791 2.94427 6.14222 2.92984L7.42224 1.65507C7.44153 1.63581 7.4677 1.625 7.49499 1.625C7.52227 1.625 7.54844 1.63581 7.56773 1.65507C7.58703 1.67432 7.59787 1.70043 7.59787 1.72765C7.59787 1.75488 7.58703 1.78099 7.56773 1.80024L6.28772 3.07741C6.27807 3.08669 6.26668 3.09396 6.25419 3.09881C6.2417 3.10365 6.22837 3.10596 6.21497 3.10561Z" fill="url(#paint1_linear_1374_30708)"/>
<path d="M8.60227 1.0717C8.38288 0.8477 8.1187 0.672278 7.8269 0.556832C7.53511 0.441387 7.22223 0.388502 6.90861 0.401616C6.32983 0.42743 5.78112 0.66613 5.36827 1.0717C5.3489 1.09095 5.33798 1.11709 5.33792 1.14437C5.33787 1.17165 5.34867 1.19784 5.36797 1.21717C5.38726 1.2365 5.41346 1.24739 5.4408 1.24745C5.46815 1.24751 5.49439 1.23672 5.51377 1.21747C5.88999 0.847777 6.39011 0.630219 6.91763 0.606778C7.20278 0.594953 7.48723 0.643227 7.75243 0.748451C8.01763 0.853676 8.25763 1.01349 8.45677 1.21747C8.84664 1.60708 9.06561 2.13515 9.06561 2.68571C9.06561 3.23627 8.84664 3.76434 8.45677 4.15395L5.43681 7.16722C5.26672 7.33661 5.03622 7.43174 4.7959 7.43174C4.55558 7.43174 4.32508 7.33661 4.15499 7.16722L1.13503 4.15395C0.745455 3.76418 0.526683 3.23618 0.526683 2.68571C0.526683 2.13524 0.745455 1.60724 1.13503 1.21747C1.33424 1.01358 1.57425 0.853828 1.83943 0.748611C2.10462 0.643393 2.38903 0.595066 2.67417 0.606778C3.20169 0.630219 3.70181 0.847777 4.07803 1.21747L5.94184 3.07714C5.95143 3.08667 5.96281 3.09423 5.97533 3.09937C5.98785 3.10451 6.00126 3.10715 6.0148 3.10712C6.02834 3.10709 6.04174 3.1044 6.05424 3.09921C6.06673 3.09401 6.07808 3.08641 6.08764 3.07684C6.09719 3.06727 6.10476 3.05591 6.10992 3.04342C6.11507 3.03093 6.11771 3.01755 6.11768 3.00404C6.11765 2.99053 6.11496 2.97716 6.10975 2.96469C6.10455 2.95222 6.09693 2.9409 6.08734 2.93137L4.22353 1.0717C3.81068 0.66613 3.26197 0.42743 2.68319 0.401616C2.36959 0.388691 2.05677 0.441661 1.765 0.557096C1.47324 0.672531 1.20904 0.847852 0.989532 1.0717C0.561004 1.49989 0.320313 2.08029 0.320312 2.68541C0.320313 3.29054 0.561004 3.87093 0.989532 4.29912L4.0095 7.31239C4.21824 7.52017 4.50105 7.63686 4.7959 7.63686C5.09075 7.63686 5.37357 7.52017 5.58231 7.31239L8.60227 4.29912C9.0305 3.87077 9.27099 3.29044 9.27099 2.68541C9.27099 2.08038 9.0305 1.50005 8.60227 1.0717Z" fill="url(#paint2_linear_1374_30708)"/>
<path d="M13.7355 1.42725H14.022L16.3894 6.68692H16.1029L15.4951 5.31957H12.2578L11.6546 6.68692H11.3682L13.7355 1.42725ZM15.3941 5.08335L13.8791 1.65287L12.3482 5.08335H15.3941Z" fill="url(#paint3_linear_1374_30708)"/>
<path d="M17.1586 7.46829C17.1655 8.26478 17.9503 8.67968 18.7343 8.67968C19.5412 8.67968 20.3556 8.37153 20.3556 7.59019C20.3556 6.7407 19.428 6.49313 18.7343 6.49313C17.6335 6.49313 16.835 5.85412 16.835 4.69725C16.835 3.50253 17.8226 2.90138 18.7343 2.90138C19.1492 2.90138 19.624 3.0369 19.918 3.24738L20.2979 2.80371L20.4635 2.92409L20.0791 3.37836C20.3283 3.64184 20.6223 3.9568 20.6223 4.70104C20.6223 5.33929 20.2227 6.18877 19.3558 6.36139C19.9963 6.4742 20.5843 6.8573 20.5843 7.59397C20.5843 8.43513 19.7251 8.90151 18.7374 8.90151C17.8257 8.90151 16.9504 8.4056 16.9428 7.47359L17.1586 7.46829ZM18.7343 6.27356C19.76 6.27356 20.3929 5.49222 20.3929 4.69574C20.3929 3.56915 19.5397 3.11488 18.7343 3.11488C17.9427 3.11488 17.0629 3.59565 17.0629 4.69271C17.0606 5.77766 17.7922 6.27356 18.7343 6.27356Z" fill="url(#paint4_linear_1374_30708)"/>
<path d="M24.8726 5.99207C24.5185 6.48041 23.8621 6.72117 23.2588 6.72117C22.2712 6.72117 21.4043 6.03977 21.4043 4.84201C21.4043 3.70634 22.2036 2.93408 23.2513 2.93408C24.2541 2.93408 25.2494 3.51252 25.1066 4.94725H21.6307C21.7135 6.00721 22.4596 6.50312 23.2588 6.50312C23.7869 6.50312 24.4053 6.26993 24.7024 5.86412L24.8726 5.99207ZM24.903 4.73677C24.9326 3.70786 24.2769 3.15213 23.2513 3.15213C22.3768 3.15213 21.6983 3.723 21.6307 4.73677H24.903Z" fill="url(#paint5_linear_1374_30708)"/>
<path d="M28.0159 4.62076H26.4098V6.68692H26.1689V1.42725H28.4482C29.5643 1.42725 30.0923 2.23887 30.0999 3.03536C30.1067 3.92194 29.5719 4.673 28.335 4.62076L30.2526 6.68692H29.9282L28.0159 4.62076ZM28.3859 4.38756C29.3736 4.38756 29.856 3.84623 29.856 3.03536C29.856 2.34411 29.3812 1.65968 28.4459 1.65968H26.4098V4.38529L28.3859 4.38756Z" fill="url(#paint6_linear_1374_30708)"/>
<path d="M34.2739 5.99207C33.9199 6.48041 33.2635 6.72117 32.661 6.72117C31.6733 6.72117 30.8057 6.03977 30.8057 4.84201C30.8057 3.70634 31.6049 2.93408 32.6534 2.93408C33.6563 2.93408 34.6515 3.51252 34.5079 4.94725H31.0321C31.1149 6.00721 31.8617 6.50312 32.661 6.50312C33.1882 6.50312 33.8067 6.26993 34.1007 5.86412L34.2739 5.99207ZM34.3043 4.73677C34.3347 3.70786 33.6783 3.15213 32.6534 3.15213C31.7781 3.15213 31.0997 3.723 31.0321 4.73677H34.3043Z" fill="url(#paint7_linear_1374_30708)"/>
<path d="M35.0283 2.97461H35.2844L36.7104 6.40131L38.1425 2.97461H38.3993L36.838 6.68447H36.5813L35.0283 2.97461Z" fill="url(#paint8_linear_1374_30708)"/>
<path d="M42.3872 5.99207C42.0324 6.48041 41.3767 6.72117 40.7735 6.72117C39.7858 6.72117 38.9189 6.03977 38.9189 4.84201C38.9189 3.70634 39.7182 2.93408 40.7659 2.93408C41.7688 2.93408 42.764 3.51252 42.6205 4.94725H39.1416C39.2244 6.00721 39.9712 6.50312 40.7705 6.50312C41.2985 6.50312 41.9162 6.26993 42.2102 5.86412L42.3872 5.99207ZM42.4168 4.73677C42.4472 3.70786 41.7916 3.15213 40.7659 3.15213C39.8914 3.15213 39.213 3.723 39.1446 4.73677H42.4168Z" fill="url(#paint9_linear_1374_30708)"/>
<path d="M43.8263 2.9747V3.38051L43.8035 3.89156C43.8978 3.61299 44.0782 3.37134 44.3188 3.20131C44.5595 3.03128 44.848 2.94161 45.143 2.94517C45.3955 2.94489 45.6443 3.00679 45.867 3.12536L45.769 3.31313C45.5769 3.20904 45.3617 3.15464 45.143 3.15489C44.7967 3.16216 44.4668 3.30351 44.2233 3.549C43.9798 3.7945 43.8418 4.12483 43.8385 4.47V6.68683H43.6045V2.97697L43.8263 2.9747Z" fill="url(#paint10_linear_1374_30708)"/>
<path d="M49.0368 3.57619C48.72 3.27335 48.2899 3.13328 47.7999 3.13328C47.1518 3.13328 46.563 3.34376 46.563 3.90705C46.563 4.52334 47.3403 4.57558 47.8075 4.67325C48.4556 4.8012 49.3308 4.87616 49.3308 5.7105C49.3308 6.49184 48.5088 6.72427 47.8151 6.72427C47.1442 6.72427 46.4802 6.44641 46.209 5.96716L46.3898 5.83921C46.7066 6.32073 47.2947 6.51607 47.8227 6.51607C48.2975 6.51607 49.1044 6.38054 49.1044 5.70444C49.1044 5.08058 48.3955 5.00562 47.7619 4.88524C47.0386 4.74972 46.3374 4.6301 46.3374 3.90857C46.3374 3.20975 47.0462 2.92432 47.7999 2.92432C48.3317 2.92432 48.818 3.0818 49.1796 3.42023L49.0368 3.57619Z" fill="url(#paint11_linear_1374_30708)"/>
<path d="M51.9629 2.91479C52.9733 2.91479 53.8478 3.65071 53.8478 4.83787C53.8478 6.04925 52.9657 6.73065 51.9553 6.73065C50.9448 6.73065 50.0703 6.04925 50.0703 4.83787C50.0703 3.62648 50.9448 2.91479 51.9629 2.91479ZM51.9553 3.13284C51.0732 3.13284 50.2967 3.77866 50.2967 4.83787C50.2967 5.89707 51.0701 6.51412 51.9553 6.51412C52.8404 6.51412 53.6214 5.89783 53.6214 4.83787C53.6214 3.77791 52.8601 3.13284 51.9553 3.13284Z" fill="url(#paint12_linear_1374_30708)"/>
<defs>
<linearGradient id="paint0_linear_1374_30708" x1="6.46169" y1="2.63745" x2="6.04954" y2="3.46467" gradientUnits="userSpaceOnUse">
<stop stop-color="#797979"/>
<stop offset="0.465" stop-color="white"/>
<stop offset="1" stop-color="#797979"/>
</linearGradient>
<linearGradient id="paint1_linear_1374_30708" x1="7.59787" y1="1.625" x2="6.71232" y2="3.40427" gradientUnits="userSpaceOnUse">
<stop stop-color="#797979"/>
<stop offset="0.465" stop-color="white"/>
<stop offset="1" stop-color="#797979"/>
</linearGradient>
<linearGradient id="paint2_linear_1374_30708" x1="9.27099" y1="0.399658" x2="5.50386" y2="9.72977" gradientUnits="userSpaceOnUse">
<stop stop-color="#797979"/>
<stop offset="0.465" stop-color="white"/>
<stop offset="1" stop-color="#797979"/>
</linearGradient>
<linearGradient id="paint3_linear_1374_30708" x1="16.3894" y1="1.42725" x2="13.1505" y2="7.61922" gradientUnits="userSpaceOnUse">
<stop stop-color="#797979"/>
<stop offset="0.465" stop-color="white"/>
<stop offset="1" stop-color="#797979"/>
</linearGradient>
<linearGradient id="paint4_linear_1374_30708" x1="20.6223" y1="2.80371" x2="16.1576" y2="8.35694" gradientUnits="userSpaceOnUse">
<stop stop-color="#797979"/>
<stop offset="0.465" stop-color="white"/>
<stop offset="1" stop-color="#797979"/>
</linearGradient>
<linearGradient id="paint5_linear_1374_30708" x1="25.1203" y1="2.93408" x2="22.8251" y2="7.44421" gradientUnits="userSpaceOnUse">
<stop stop-color="#797979"/>
<stop offset="0.465" stop-color="white"/>
<stop offset="1" stop-color="#797979"/>
</linearGradient>
<linearGradient id="paint6_linear_1374_30708" x1="30.2526" y1="1.42725" x2="26.6647" y2="7.00578" gradientUnits="userSpaceOnUse">
<stop stop-color="#797979"/>
<stop offset="0.465" stop-color="white"/>
<stop offset="1" stop-color="#797979"/>
</linearGradient>
<linearGradient id="paint7_linear_1374_30708" x1="34.5218" y1="2.93408" x2="32.2266" y2="7.44428" gradientUnits="userSpaceOnUse">
<stop stop-color="#797979"/>
<stop offset="0.465" stop-color="white"/>
<stop offset="1" stop-color="#797979"/>
</linearGradient>
<linearGradient id="paint8_linear_1374_30708" x1="38.3993" y1="2.97461" x2="36.0516" y2="7.24679" gradientUnits="userSpaceOnUse">
<stop stop-color="#797979"/>
<stop offset="0.465" stop-color="white"/>
<stop offset="1" stop-color="#797979"/>
</linearGradient>
<linearGradient id="paint9_linear_1374_30708" x1="42.6343" y1="2.93408" x2="40.3389" y2="7.4439" gradientUnits="userSpaceOnUse">
<stop stop-color="#797979"/>
<stop offset="0.465" stop-color="white"/>
<stop offset="1" stop-color="#797979"/>
</linearGradient>
<linearGradient id="paint10_linear_1374_30708" x1="45.867" y1="2.94507" x2="43.1125" y2="6.28054" gradientUnits="userSpaceOnUse">
<stop stop-color="#797979"/>
<stop offset="0.465" stop-color="white"/>
<stop offset="1" stop-color="#797979"/>
</linearGradient>
<linearGradient id="paint11_linear_1374_30708" x1="49.3308" y1="2.92432" x2="46.802" y2="7.08472" gradientUnits="userSpaceOnUse">
<stop stop-color="#797979"/>
<stop offset="0.465" stop-color="white"/>
<stop offset="1" stop-color="#797979"/>
</linearGradient>
<linearGradient id="paint12_linear_1374_30708" x1="53.8478" y1="2.9148" x2="51.5472" y2="7.47563" gradientUnits="userSpaceOnUse">
<stop stop-color="#797979"/>
<stop offset="0.465" stop-color="white"/>
<stop offset="1" stop-color="#797979"/>
</linearGradient>
</defs>
</svg>
